<?xml version="1.0" encoding="UTF-8"?><svg id="Layer_2" xmlns="http://www.w3.org/2000/svg" viewBox="0 0 2000 2000"><defs><style>.cls-1{fill:#cdffcc;}.cls-1,.cls-2,.cls-3,.cls-4,.cls-5{stroke-width:0px;}.cls-2{fill:#340b0b;}.cls-3{fill:#33f;}.cls-4{fill:#8e8eff;}.cls-5{fill:#fff;}</style></defs><path class="cls-4" d="M948.22,1191.46l-334.12,167.06-334.12-167.06-50.98,25.49,385.1,192.55,385.1-192.55-50.98-25.49Z"/><path class="cls-2" d="M574.56,1044.17l26.48,13.24v-93.36c-47.31-25.16-293.91-141.31-347.39-166.84v352.07c30.89,15.45,309.03,154.52,347.39,173.7v-78.86c-40.03-20.02-231.32-115.66-267-133.5v-46.68c60.8,30.4,204.8,102.4,267,133.5v-93.36c-48.4-24.2-215.82-107.91-267-133.5v-46.68l240.53,120.26Z"/><path class="cls-3" d="M614.1,582.66l-386.4,193.2v389.46c22.59,11.3,353.27,176.63,386.4,193.2,34.76-17.38,362.37-181.18,386.4-193.2v-389.46l-386.4-193.2ZM601.03,1057.41c-4.67-2.34-254.05-127.03-267-133.5v46.68c52.12,26.06,217.74,108.87,267,133.5v93.36c-62.72-31.36-205.73-102.87-267-133.5v46.68c34.62,17.31,228.14,114.07,267,133.5v78.86c-39.93-19.96-315.09-157.55-347.39-173.7v-352.07c54.97,26.24,298.73,141.02,347.39,166.84v93.36ZM280.38,778.52l333.73-166.86,333.74,166.86-333.74,161.03-333.73-161.03ZM974.57,883.72l-267.11,133.55v46.68l267.11-133.55v93.36l-267.11,133.55v125.54c-1.7.85-80.04,40.02-81.69,40.84v-358.93c48.84-25.93,293.97-141.38,348.79-167.54v86.5Z"/><polygon class="cls-5" points="947.84 778.52 614.1 939.55 280.38 778.52 614.1 611.66 947.84 778.52"/><path class="cls-4" d="M707.46,1017.27v46.68l267.11-133.55v93.36l-267.11,133.55v125.54c-1.7.85-80.04,40.02-81.69,40.84v-358.93c48.84-25.93,293.97-141.38,348.79-167.54v86.5l-267.11,133.55Z"/><path class="cls-1" d="M334.03,923.91v46.68c52.12,26.06,217.74,108.87,267,133.5v93.36c-62.72-31.36-205.73-102.87-267-133.5v46.68c34.62,17.31,228.14,114.07,267,133.5v78.86c-39.93-19.96-315.09-157.55-347.39-173.7v-352.07c54.97,26.24,298.73,141.02,347.39,166.84v93.36c-4.67-2.34-254.05-127.03-267-133.5Z"/><path class="cls-3" d="M800.82,772.2l-186.72,93.36-186.72-93.36,186.72-93.36,186.72,93.36Z"/><path class="cls-3" d="M1199.96,848.11c-8.8,0-16.48-1.66-23.05-4.97-6.57-3.31-11.63-7.95-15.19-13.92-3.56-5.97-5.33-12.93-5.33-20.88v-23.5c0-7.96,1.78-14.92,5.33-20.88,3.55-5.97,8.61-10.61,15.19-13.92,6.57-3.31,14.25-4.97,23.05-4.97s16.42,1.66,22.87,4.97c6.45,3.32,11.45,7.96,15.01,13.92,3.55,5.97,5.33,12.93,5.33,20.88v18.44h-60.93v5.06c0,6.27,1.47,10.85,4.43,13.74,2.95,2.89,7.38,4.34,13.29,4.34,3.86,0,7.23-.6,10.12-1.81,2.89-1.2,4.58-3.01,5.06-5.42h26.58c-1.93,8.68-6.69,15.67-14.28,20.97-7.59,5.31-16.75,7.95-27.48,7.95ZM1217.32,788.99v-4.52c0-6.15-1.42-10.91-4.25-14.28-2.83-3.37-7.2-5.06-13.11-5.06s-10.33,1.75-13.29,5.24c-2.96,3.5-4.43,8.32-4.43,14.46v2.35l36.88-.36-1.81,2.17Z"/><path class="cls-3" d="M1285.05,846.3l-33.09-99.44h28.02l17.35,55.87c1.09,3.38,2.08,6.87,2.99,10.49.9,3.62,1.47,6.99,1.72,10.12.24-3.13.78-6.51,1.63-10.12.84-3.62,1.75-7.05,2.71-10.31l17-56.05h28.38l-32.73,99.44h-33.99Z"/><path class="cls-3" d="M1363.42,846.3v-99.44h22.24v15.37h3.8l-3.43,1.99c0-5.66,1.5-10.27,4.52-13.83,3.01-3.55,7.05-5.33,12.11-5.33s9.31,2.02,12.74,6.06c3.43,4.04,5.15,9.25,5.15,15.64l-3.8-4.52h5.06l-1.81,1.99c0-5.79,1.6-10.42,4.79-13.92,3.19-3.49,7.32-5.24,12.39-5.24,5.9,0,10.88,2.35,14.91,7.05,4.04,4.7,6.06,10.79,6.06,18.26v75.93h-23.32v-72.86c0-2.77-.57-4.91-1.72-6.42-1.15-1.51-2.87-2.26-5.15-2.26s-3.95.75-4.97,2.26c-1.02,1.51-1.54,3.65-1.54,6.42v72.86h-21.33v-72.86c0-2.77-.51-4.91-1.54-6.42-1.03-1.51-2.68-2.26-4.97-2.26s-4.01.75-5.15,2.26c-1.15,1.51-1.72,3.65-1.72,6.42v72.86h-23.32Z"/><path class="cls-3" d="M1199.78,1038.3c-8.8,0-16.45-1.66-22.96-4.97-6.51-3.31-11.54-7.95-15.09-13.92-3.56-5.97-5.33-12.93-5.33-20.88v-23.5c0-7.96,1.78-14.92,5.33-20.88,3.55-5.97,8.59-10.61,15.09-13.92,6.51-3.31,14.16-4.97,22.96-4.97s16.6,1.66,23.05,4.97c6.45,3.32,11.45,7.96,15.01,13.92,3.55,5.97,5.33,12.93,5.33,20.88v23.5c0,7.95-1.78,14.92-5.33,20.88-3.56,5.97-8.56,10.61-15.01,13.92-6.45,3.31-14.13,4.97-23.05,4.97ZM1199.78,1014.8c5.3,0,9.34-1.41,12.11-4.25,2.77-2.83,4.16-6.84,4.16-12.02v-23.5c0-5.3-1.38-9.34-4.16-12.11-2.77-2.77-6.81-4.16-12.11-4.16s-9.19,1.39-12.02,4.16c-2.83,2.77-4.25,6.81-4.25,12.11v23.5c0,5.18,1.42,9.19,4.25,12.02,2.83,2.83,6.84,4.25,12.02,4.25Z"/><path class="cls-3" d="M1315.2,1038.3c-9.16,0-16.42-3.22-21.79-9.67-5.37-6.45-8.05-15.28-8.05-26.49l8.86,13.56h-6.33v20.79h-26.22v-131.98h27.12v27.12l-.9,26.22h6.33l-8.86,13.56c0-11.33,2.68-20.19,8.05-26.58,5.36-6.39,12.63-9.58,21.79-9.58,9.64,0,17.42,3.53,23.32,10.58,5.9,7.05,8.86,16.48,8.86,28.29v25.31c0,11.81-2.96,21.24-8.86,28.3-5.91,7.05-13.68,10.58-23.32,10.58ZM1304.72,1014.8c4.94,0,8.77-1.41,11.48-4.25,2.71-2.83,4.07-6.84,4.07-12.02v-23.5c0-5.3-1.35-9.34-4.07-12.11-2.71-2.77-6.54-4.16-11.48-4.16-5.18,0-9.13,1.48-11.84,4.43-2.71,2.96-4.07,7.2-4.07,12.75v21.7c0,5.54,1.36,9.79,4.07,12.74,2.71,2.96,6.66,4.43,11.84,4.43Z"/><path class="cls-3" d="M1365,1069.04v-24.41h28.93c4.58,0,8.28-1.51,11.12-4.52,2.83-3.02,4.25-6.93,4.25-11.75v-66.9h-45.2v-24.41h72.32v92.21c0,12.3-3.61,21.99-10.85,29.11-7.23,7.11-17.12,10.67-29.65,10.67h-30.91ZM1421.95,921.32c-4.94,0-8.89-1.27-11.84-3.8-2.95-2.53-4.43-5.97-4.43-10.3s1.48-7.78,4.43-10.31c2.95-2.53,6.9-3.79,11.84-3.79s8.89,1.26,11.85,3.79c2.95,2.53,4.43,5.97,4.43,10.31s-1.48,7.77-4.43,10.3c-2.96,2.53-6.9,3.8-11.85,3.8Z"/><path class="cls-3" d="M1502.37,1038.3c-8.8,0-16.48-1.66-23.05-4.97-6.57-3.31-11.63-7.95-15.19-13.92-3.56-5.97-5.33-12.93-5.33-20.88v-23.5c0-7.96,1.78-14.92,5.33-20.88,3.55-5.97,8.62-10.61,15.19-13.92,6.57-3.31,14.25-4.97,23.05-4.97s16.42,1.66,22.87,4.97c6.45,3.32,11.45,7.96,15.01,13.92,3.55,5.97,5.33,12.93,5.33,20.88v18.44h-60.93v5.06c0,6.27,1.47,10.85,4.43,13.74,2.95,2.89,7.38,4.34,13.29,4.34,3.86,0,7.23-.6,10.13-1.81,2.89-1.2,4.58-3.01,5.06-5.42h26.58c-1.93,8.68-6.69,15.67-14.28,20.97-7.59,5.31-16.75,7.95-27.48,7.95ZM1519.72,979.18v-4.52c0-6.15-1.42-10.91-4.25-14.28-2.83-3.37-7.2-5.06-13.11-5.06s-10.34,1.75-13.29,5.24c-2.96,3.5-4.43,8.32-4.43,14.46v2.35l36.88-.36-1.81,2.17Z"/><path class="cls-3" d="M1607.08,1038.3c-8.8,0-16.51-1.66-23.14-4.97-6.63-3.31-11.75-7.95-15.37-13.92-3.61-5.97-5.42-12.93-5.42-20.88v-23.5c0-8.07,1.81-15.07,5.42-20.97,3.62-5.9,8.74-10.51,15.37-13.83,6.63-3.31,14.34-4.97,23.14-4.97,13.14,0,23.62,3.32,31.46,9.94,7.84,6.63,11.99,15.67,12.48,27.12h-26.39c-.36-4.22-2.14-7.53-5.33-9.94-3.2-2.41-7.26-3.62-12.21-3.62-5.42,0-9.58,1.39-12.48,4.16-2.89,2.77-4.34,6.81-4.34,12.11v23.5c0,5.18,1.45,9.19,4.34,12.02,2.89,2.83,7.05,4.25,12.48,4.25,4.94,0,9.01-1.17,12.21-3.52,3.19-2.35,4.97-5.7,5.33-10.03h26.39c-.48,11.45-4.64,20.49-12.48,27.12-7.84,6.63-18.32,9.94-31.46,9.94Z"/><path class="cls-3" d="M1721.66,1036.49c-10.12,0-18.08-2.89-23.87-8.68-5.79-5.79-8.68-13.74-8.68-23.87v-42.49h-26.76v-24.41h26.76v-28.02h27.12v28.02h38.87v24.41h-38.87v41.58c0,2.65.69,4.82,2.08,6.51,1.38,1.69,3.41,2.53,6.06,2.53h29.83v24.41h-32.54Z"/><path class="cls-3" d="M1179.89,1226.68v-61.47h-26.39v-24.41h26.39v-15.37c0-9.28,3.16-16.72,9.49-22.33,6.33-5.6,14.62-8.41,24.86-8.41h29.11v23.5h-28.21c-2.41,0-4.37.75-5.87,2.26-1.51,1.51-2.26,3.46-2.26,5.87v14.46h36.34v24.41h-36.34v61.47h-27.12Z"/><path class="cls-3" d="M1304.64,1228.49c-8.8,0-16.45-1.66-22.96-4.97-6.51-3.31-11.54-7.95-15.09-13.92-3.56-5.97-5.33-12.93-5.33-20.88v-23.5c0-7.96,1.78-14.92,5.33-20.88,3.55-5.97,8.59-10.61,15.09-13.92,6.51-3.31,14.16-4.97,22.96-4.97s16.6,1.66,23.05,4.97c6.45,3.32,11.45,7.96,15.01,13.92,3.55,5.97,5.33,12.93,5.33,20.88v23.5c0,7.95-1.78,14.92-5.33,20.88-3.56,5.97-8.56,10.61-15.01,13.92-6.45,3.31-14.13,4.97-23.05,4.97ZM1304.64,1204.99c5.3,0,9.34-1.41,12.11-4.25,2.77-2.83,4.16-6.84,4.16-12.02v-23.5c0-5.3-1.38-9.34-4.16-12.11-2.77-2.77-6.81-4.16-12.11-4.16s-9.19,1.39-12.02,4.16c-2.83,2.77-4.25,6.81-4.25,12.11v23.5c0,5.18,1.42,9.19,4.25,12.02,2.83,2.83,6.84,4.25,12.02,4.25Z"/><path class="cls-3" d="M1368.18,1226.68v-99.44h26.21v20.79h7.96l-8.86,6.33c0-8.92,2.59-15.97,7.77-21.15s12.18-7.78,20.97-7.78c10,0,17.84,3.38,23.5,10.13,5.67,6.75,8.5,16.03,8.5,27.84v9.94h-27.12v-8.14c0-5.18-1.39-9.19-4.16-12.02-2.77-2.83-6.69-4.25-11.75-4.25s-8.98,1.6-11.75,4.79c-2.77,3.19-4.16,7.75-4.16,13.65v59.3h-27.12Z"/><path class="cls-3" d="M1466.95,1226.68v-99.44h22.24v15.37h3.8l-3.43,1.99c0-5.66,1.51-10.27,4.52-13.83,3.01-3.55,7.05-5.33,12.11-5.33s9.31,2.02,12.75,6.06c3.43,4.04,5.15,9.25,5.15,15.64l-3.8-4.52h5.06l-1.81,1.99c0-5.79,1.6-10.42,4.79-13.92,3.19-3.49,7.32-5.24,12.38-5.24,5.9,0,10.88,2.35,14.92,7.05,4.04,4.7,6.06,10.79,6.06,18.26v75.93h-23.32v-72.86c0-2.77-.57-4.91-1.72-6.42-1.15-1.51-2.86-2.26-5.15-2.26s-3.95.75-4.97,2.26c-1.02,1.51-1.54,3.65-1.54,6.42v72.86h-21.33v-72.86c0-2.77-.51-4.91-1.54-6.42-1.02-1.51-2.68-2.26-4.97-2.26s-4.01.75-5.15,2.26c-1.15,1.51-1.72,3.65-1.72,6.42v72.86h-23.32Z"/><path class="cls-3" d="M1609.13,1228.49c-9.88,0-17.72-2.86-23.5-8.59-5.79-5.72-8.68-13.23-8.68-22.51,0-6.75,1.6-12.54,4.79-17.36,3.19-4.82,7.84-8.53,13.92-11.12,6.09-2.59,13.41-3.89,21.97-3.89h19.53v-6.33c0-3.74-1.3-6.66-3.89-8.77-2.59-2.11-6.3-3.16-11.12-3.16s-8.22.9-10.94,2.71c-2.71,1.81-4.19,4.46-4.43,7.95h-25.67c.36-9.76,4.22-17.54,11.57-23.32,7.35-5.79,17.3-8.68,29.83-8.68s23.38,3.02,30.74,9.04c7.35,6.03,11.03,14.46,11.03,25.31v66.9h-26.22v-19.71h-4.34l4.88-2.89c0,4.94-1.21,9.25-3.61,12.93-2.41,3.68-5.82,6.51-10.22,8.5-4.4,1.99-9.61,2.98-15.64,2.98ZM1618.71,1206.79c5.67,0,10.15-1.42,13.47-4.25,3.31-2.83,4.97-6.54,4.97-11.12v-10.13h-18.99c-4.82,0-8.53,1.18-11.12,3.53-2.6,2.35-3.89,5.4-3.89,9.13s1.36,6.81,4.07,9.22c2.71,2.41,6.54,3.62,11.48,3.62Z"/><path class="cls-3" d="M1737.26,1226.68c-10.13,0-18.08-2.89-23.87-8.68-5.79-5.79-8.68-13.74-8.68-23.87v-42.49h-26.76v-24.41h26.76v-28.02h27.12v28.02h38.87v24.41h-38.87v41.58c0,2.65.69,4.82,2.08,6.51,1.38,1.69,3.41,2.53,6.06,2.53h29.83v24.41h-32.54Z"/></svg>