<?xml version="1.0" encoding="UTF-8"?><svg id="Layer_2" xmlns="http://www.w3.org/2000/svg" viewBox="0 0 2000 2000"><defs><style>.cls-1,.cls-2,.cls-3,.cls-4{stroke-width:0px;}.cls-2{fill:#340b0b;}.cls-3{fill:#8c8c8c;}.cls-4{fill:#fff;}</style></defs><path class="cls-3" d="M1483.2,1295.21l-487.46,243.73-487.46-243.73-74.38,37.19,561.84,280.92,561.84-280.92-74.38-37.19Z"/><path class="cls-2" d="M938.04,1080.32l38.63,19.31v-136.2c-69.02-36.7-428.8-206.16-506.83-243.41v513.66c45.07,22.54,450.87,225.43,506.83,253.42v-115.06c-58.4-29.2-337.48-168.74-389.55-194.77v-68.1c88.71,44.35,298.79,149.4,389.55,194.77v-136.2c-70.62-35.31-314.87-157.44-389.55-194.77v-68.1l350.92,175.46Z"/><path class="cls-1" d="M995.74,407l-563.74,281.87v568.2c32.96,16.48,515.4,257.7,563.74,281.87,50.71-25.36,528.68-264.34,563.74-281.87v-568.2l-563.74-281.87ZM976.67,1099.64c-6.81-3.41-370.65-185.33-389.55-194.77v68.1c76.04,38.02,317.67,158.84,389.55,194.77v136.2c-91.51-45.75-300.15-150.08-389.55-194.77v68.1c50.51,25.25,332.84,166.42,389.55,194.77v115.06c-58.25-29.12-459.71-229.85-506.83-253.42v-513.66c80.2,38.29,435.84,205.74,506.83,243.41v136.2ZM508.84,692.75l486.89-243.45,486.91,243.45-486.91,234.93-486.89-234.93ZM1521.64,846.22l-389.7,194.85v68.1l389.7-194.85v136.2l-389.7,194.85v183.16c-2.47,1.24-116.78,58.39-119.18,59.59v-523.67c71.26-37.83,428.89-206.26,508.88-244.43v126.2Z"/><polygon class="cls-4" points="1482.65 692.75 995.74 927.68 508.84 692.75 995.74 449.3 1482.65 692.75"/><path class="cls-3" d="M1131.94,1041.07v68.1l389.7-194.85v136.2l-389.7,194.85v183.16c-2.47,1.24-116.78,58.39-119.18,59.59v-523.67c71.26-37.83,428.89-206.26,508.88-244.43v126.2l-389.7,194.85Z"/><path class="cls-4" d="M587.12,904.87v68.1c76.04,38.02,317.67,158.84,389.55,194.77v136.2c-91.51-45.75-300.15-150.08-389.55-194.77v68.1c50.51,25.25,332.84,166.42,389.55,194.77v115.06c-58.25-29.12-459.71-229.85-506.83-253.42v-513.66c80.2,38.29,435.84,205.74,506.83,243.41v136.2c-6.81-3.41-370.65-185.33-389.55-194.77Z"/><path class="cls-1" d="M1268.15,683.53l-272.41,136.2-272.41-136.2,272.41-136.2,272.41,136.2Z"/></svg>